<svg width="270" height="72" viewBox="0 0 270 72" fill="none" xmlns="http://www.w3.org/2000/svg">
<path d="M130.595 19.3138L127.867 18.8916V17.1325H132.519C133.358 17.1325 134.186 17.0973 135.002 17.027C136.261 16.9332 137.45 16.8863 138.569 16.8863C141.95 16.9097 144.339 17.543 145.738 18.7861C147.137 20.0292 147.837 21.9055 147.837 24.4152C147.837 26.2915 147.405 27.9216 146.543 29.3054C145.68 30.6892 144.479 31.7447 142.94 32.4718C141.425 33.1989 139.676 33.5624 137.695 33.5624C137.018 33.5624 136.331 33.5507 135.631 33.5272C134.932 33.4803 134.5 33.4451 134.337 33.4217V41.1617L139.128 41.5487V43.2726H127.692V41.5487L130.595 41.1969V19.3138ZM134.337 31.4867C134.99 31.604 136.109 31.6626 137.695 31.6626C139.536 31.6626 141.029 31.0997 142.171 29.9739C143.337 28.8481 143.92 27.0069 143.92 24.4503C143.92 22.4332 143.418 20.9908 142.416 20.123C141.413 19.2317 139.851 18.7861 137.73 18.7861C136.983 18.7861 136.191 18.833 135.351 18.9268C134.838 18.9737 134.5 18.9972 134.337 18.9972V31.4867Z" fill="#27261B"/>
<path d="M160.931 43.6596C158.553 43.6596 156.536 43.1084 154.881 42.006C153.249 40.9037 152.013 39.3557 151.174 37.362C150.334 35.345 149.915 33.0112 149.915 30.3609C149.915 27.6636 150.416 25.2947 151.418 23.2542C152.444 21.2136 153.843 19.6422 155.615 18.5398C157.387 17.414 159.38 16.8511 161.595 16.8511C165.233 16.8511 168.007 18.0121 169.919 20.3341C171.854 22.6326 172.822 25.8224 172.822 29.9035C172.822 32.6477 172.297 35.0635 171.248 37.151C170.222 39.215 168.8 40.8216 166.981 41.9709C165.186 43.0967 163.169 43.6596 160.931 43.6596ZM161.386 18.6805C159.124 18.6805 157.34 19.6773 156.035 21.671C154.729 23.6412 154.076 26.5378 154.076 30.3609C154.076 33.8791 154.706 36.6701 155.965 38.7341C157.247 40.7747 159.031 41.7949 161.316 41.7949C163.554 41.7949 165.326 40.7747 166.631 38.7341C167.96 36.6936 168.625 33.7618 168.625 29.9387C168.625 26.3971 167.995 23.6412 166.736 21.671C165.477 19.6773 163.694 18.6805 161.386 18.6805Z" fill="#27261B"/>
<path d="M178.546 19.3138L175.818 18.8916V17.1325H180.469C181.309 17.1325 182.136 17.0973 182.953 17.027C184.212 16.9332 185.401 16.8863 186.52 16.8863C189.9 16.9097 192.29 17.543 193.689 18.7861C195.088 20.0292 195.787 21.9055 195.787 24.4152C195.787 26.2915 195.356 27.9216 194.493 29.3054C193.631 30.6892 192.43 31.7447 190.891 32.4718C189.376 33.1989 187.627 33.5624 185.645 33.5624C184.969 33.5624 184.281 33.5507 183.582 33.5272C182.883 33.4803 182.451 33.4451 182.288 33.4217V41.1617L187.079 41.5487V43.2726H175.643V41.5487L178.546 41.1969V19.3138ZM182.288 31.4867C182.941 31.604 184.06 31.6626 185.645 31.6626C187.487 31.6626 188.979 31.0997 190.122 29.9739C191.288 28.8481 191.871 27.0069 191.871 24.4503C191.871 22.4332 191.369 20.9908 190.367 20.123C189.364 19.2317 187.802 18.7861 185.68 18.7861C184.934 18.7861 184.142 18.833 183.302 18.9268C182.789 18.9737 182.451 18.9972 182.288 18.9972V31.4867Z" fill="#27261B"/>
<path d="M208.882 43.6596C206.504 43.6596 204.487 43.1084 202.831 42.006C201.199 40.9037 199.964 39.3557 199.124 37.362C198.285 35.345 197.865 33.0112 197.865 30.3609C197.865 27.6636 198.367 25.2947 199.369 23.2542C200.395 21.2136 201.794 19.6422 203.566 18.5398C205.338 17.414 207.331 16.8511 209.546 16.8511C213.183 16.8511 215.958 18.0121 217.87 20.3341C219.805 22.6326 220.772 25.8224 220.772 29.9035C220.772 32.6477 220.248 35.0635 219.199 37.151C218.173 39.215 216.751 40.8216 214.932 41.9709C213.137 43.0967 211.12 43.6596 208.882 43.6596ZM209.336 18.6805C207.075 18.6805 205.291 19.6773 203.986 21.671C202.68 23.6412 202.027 26.5378 202.027 30.3609C202.027 33.8791 202.657 36.6701 203.916 38.7341C205.198 40.7747 206.982 41.7949 209.266 41.7949C211.505 41.7949 213.277 40.7747 214.582 38.7341C215.911 36.6936 216.576 33.7618 216.576 29.9387C216.576 26.3971 215.946 23.6412 214.687 21.671C213.428 19.6773 211.645 18.6805 209.336 18.6805Z" fill="#27261B"/>
<path d="M221.356 17.1325H230.659V18.8916L227.546 19.3138L233.316 35.814L234.61 40.1062L235.765 35.7437L240.975 19.3138L238.213 18.8916V17.1325H246.012V18.8916L243.773 19.3138L235.485 43.554H232.442L223.489 19.3138L221.356 18.8916V17.1325Z" fill="#27261B"/>
<path d="M255.486 16.9214H259.333L267.832 41.1969L270 41.5487V43.2726H260.767V41.5487L263.67 41.1969L262.026 35.99H251.814L250.171 41.1969L253.178 41.5487V43.2726H244.89V41.5487L247.058 41.1969L255.486 16.9214ZM257.69 22.5505L256.815 19.4545L255.976 22.6209L252.444 33.9142H261.362L257.69 22.5505Z" fill="#27261B"/>
<path d="M69.1077 19.0881L66.1538 18.6551V16.8511H73.0215L85.3169 34.4588L87.3846 38.2834V19.0881L84.1723 18.6551V16.8511H92.8861V18.6551L89.9323 19.0881V43.6596H87.0153L74.4615 25.6549L71.6184 20.8922V41.5308L75.1261 41.8916V43.6596H66.1538V41.8916L69.1077 41.4947V19.0881Z" fill="#27261B"/>
<path d="M98.6028 19.0881L95.649 18.6551V16.8511H102.517L114.812 34.4588L116.88 38.2834V19.0881L113.667 18.6551V16.8511H122.381V18.6551L119.427 19.0881V43.6596H116.511L103.957 25.6549L101.114 20.8922V41.5308L104.621 41.8916V43.6596H95.649V41.8916L98.6028 41.4947V19.0881Z" fill="#27261B"/>
<path d="M29.4878 13.2498C30.8467 13.2498 31.8304 13.6847 32.4389 14.5545C33.0271 15.4244 33.2806 16.5976 33.1995 18.0743C33.0981 19.551 32.6823 21.2502 31.9521 23.172C31.222 25.1139 30.2078 27.157 28.9098 29.3013C28.2404 30.4138 27.4697 31.5669 26.5976 32.7604C25.7254 33.9741 24.7519 35.0867 23.6769 36.0981C22.5817 37.1095 21.4154 37.9895 20.1782 38.738C18.9207 39.4864 17.582 39.9719 16.1623 40.1944C14.4991 40.4169 13.3227 40.1944 12.6331 39.5269C11.9233 38.8593 11.5582 37.949 11.5379 36.796C11.4973 35.6632 11.7509 34.3989 12.2985 33.0031C12.8258 31.6073 13.5256 30.3026 14.3977 29.0889C15.2698 27.8751 16.2535 26.8536 17.3488 26.0242C18.4238 25.2151 19.4784 24.8105 20.5128 24.8105C20.7765 24.8105 21.0605 24.8813 21.3647 25.0229C21.6689 25.1645 21.9529 25.3668 22.2166 25.6298C22.4802 25.8927 22.7236 26.1962 22.9467 26.5401C23.1496 26.9042 23.2611 27.2885 23.2814 27.6931C22.4295 27.0255 21.4763 26.8637 20.4216 27.2076C19.3872 27.5313 18.3731 28.128 17.3792 28.9978C16.4057 29.8677 15.5437 30.8993 14.7932 32.0928C14.0428 33.2661 13.5458 34.3888 13.3025 35.4609C13.0388 36.5128 13.0996 37.3927 13.485 38.1008C13.8704 38.7885 14.7222 39.0818 16.0406 38.9807C16.8722 38.9605 17.8254 38.6368 18.9004 38.0097C19.9551 37.3624 21.0199 36.5634 22.0949 35.6126C23.1698 34.6416 24.2042 33.5695 25.1981 32.3963C26.1716 31.223 27.0134 30.0801 27.7232 28.9675C28.9199 27.0458 29.8529 25.205 30.5222 23.4451C31.1915 21.6852 31.5972 20.1478 31.7392 18.8329C31.8811 17.5181 31.7493 16.4662 31.3436 15.6772C30.9177 14.8883 30.2484 14.4736 29.3357 14.4332C28.0579 14.4332 26.5367 14.7973 24.7722 15.5255C22.9873 16.2335 21.1213 17.2247 19.1742 18.4991C17.2271 19.7938 15.28 21.321 13.3329 23.0809C11.4061 24.8611 9.68205 26.8233 8.16087 28.9675C7.26844 30.2419 6.42672 31.6781 5.63571 33.2762C4.86498 34.8743 4.23622 36.5027 3.74945 38.1614C3.26267 39.8202 2.94829 41.4385 2.80631 43.0163C2.68462 44.6144 2.8266 46.0304 3.23224 47.2644C3.65818 48.4983 4.38834 49.4895 5.42274 50.238C6.43686 51.0067 7.86677 51.3708 9.71247 51.3303C9.93558 51.3303 10.1587 51.3101 10.3818 51.2696C10.6252 51.2292 10.8686 51.1786 11.112 51.1179C9.77332 49.5198 8.7592 47.8105 8.0696 45.9899C7.40028 44.1491 7.07576 42.187 7.09604 40.1034C7.09604 38.9908 7.22788 37.7366 7.49155 36.3409C7.73494 34.9248 8.14058 33.5493 8.70849 32.2142C9.29668 30.8993 10.0776 29.716 11.0511 28.6641C12.0247 27.6324 13.2619 26.9244 14.7628 26.5401C13.4444 27.1874 12.3492 27.9864 11.477 28.9372C10.6252 29.8879 9.94572 30.9398 9.43866 32.0928C8.9316 33.2256 8.57666 34.4495 8.37383 35.7643C8.15073 37.0792 8.03917 38.4446 8.03917 39.8606C8.01889 41.9442 8.38397 43.8862 9.13442 45.6865C9.86459 47.4869 10.9193 49.1861 12.2985 50.7841C13.6574 50.2987 15.0772 49.53 16.5578 48.4781C18.0181 47.4262 19.5393 46.1315 21.1213 44.5942C22.6831 43.0972 24.3057 41.4081 25.9891 39.5269C27.632 37.7063 29.356 35.7441 31.1611 33.6403C32.9257 31.5972 34.7207 29.4833 36.5461 27.2986C38.4121 25.0735 40.2578 22.9191 42.0832 20.8356C41.5558 18.752 40.8257 16.8505 39.8927 15.1311C38.98 13.4116 37.8949 12.0158 36.6374 10.9437C35.3798 9.85138 33.9499 9.14337 32.3476 8.81971C30.7453 8.47582 29.0315 8.65788 27.206 9.36589C26.9221 9.48726 26.699 9.57829 26.5367 9.63897C26.3745 9.69966 26.0195 9.88172 25.4719 10.1851C26.344 9.29509 27.3277 8.63765 28.423 8.21285C29.4979 7.76782 30.5831 7.51496 31.6783 7.45428C33.1386 7.45428 34.4976 7.74759 35.7551 8.33422C36.9923 8.92086 38.118 9.74012 39.1321 10.792C40.1259 11.8237 40.9879 13.0576 41.7181 14.4939C42.4483 15.9099 43.0466 17.4776 43.5131 19.197C45.805 16.628 48.1375 14.1803 50.5105 11.854C52.8633 9.52772 55.2363 7.49473 57.6296 5.75506C60.0432 4.0154 62.4467 2.61962 64.84 1.56772C67.2536 0.536061 69.6571 0.0202287 72.0504 0.0202287C72.4358 -0.0202287 72.8719 0 73.3586 0.0809148C73.8454 0.16183 74.3322 0.283202 74.819 0.445031C75.2855 0.606861 75.7114 0.778805 76.0968 0.960863C76.4821 1.14292 76.7661 1.33509 76.9486 1.53738C75.9345 1.17326 74.9609 1.15304 74.028 1.47669C73.1152 1.80035 72.2938 2.19481 71.5636 2.66007C69.4948 3.95471 67.568 5.64381 65.7832 7.72736C63.9983 9.79069 62.3047 12.0765 60.7024 14.5849C59.1204 17.0932 57.6195 19.7331 56.1997 22.5044C54.78 25.3364 53.421 28.0774 52.123 30.7274C50.8046 33.4178 49.5167 35.997 48.2592 38.4649C47.0017 40.9328 45.7442 43.1074 44.4866 44.9886C43.2494 46.8497 41.9716 48.3466 40.6533 49.4794C39.3349 50.592 37.9557 51.1685 36.5157 51.2089C35.4813 51.2292 34.528 50.9359 33.6558 50.329C32.804 49.7424 32.3273 48.9534 32.2259 47.9622C32.8141 48.1241 33.3313 48.1848 33.7775 48.1443C34.244 48.1241 34.67 48.033 35.0553 47.8712C35.7246 47.6285 36.394 47.2239 37.0633 46.6575C37.7123 46.1113 38.4019 45.4235 39.1321 44.5942C40.7547 41.7419 41.8601 38.6773 42.4483 35.4002C43.0364 32.1029 43.1886 28.8664 42.9046 25.6904C40.6127 28.7854 38.3309 31.8197 36.0593 34.7934C33.808 37.7872 31.5059 40.5181 29.1531 42.986C26.8004 45.4539 24.3969 47.5577 21.9428 49.2973C19.4886 51.0168 16.9229 52.1597 14.2456 52.7261C15.8682 54.223 17.7443 55.5379 19.874 56.6707C22.0239 57.8237 24.3158 58.7947 26.7497 59.5836C29.1836 60.3725 31.7696 60.9693 34.5077 61.3739C37.2255 61.7784 39.9941 61.9504 42.8133 61.8897C46.3019 61.829 49.537 61.6267 52.5185 61.2828C55.5203 60.9592 58.3801 60.5445 61.0979 60.0388C61.0979 59.8972 61.2095 59.8163 61.4326 59.796C63.0552 59.3105 64.9414 58.7138 67.0914 58.0058C69.2413 57.2978 71.5231 56.5594 73.9367 55.7907C76.2692 55.0625 78.7233 54.3039 81.2992 53.515C83.8345 52.7261 86.2684 52.0282 88.6009 51.4213C90.9536 50.7943 93.1441 50.2885 95.1724 49.9042C97.2006 49.4996 98.9449 49.267 100.405 49.2063C103.874 49.0849 106.906 49.3985 109.502 50.1469C112.078 50.9156 113.954 52.1799 115.13 53.9398C117.098 54.4253 118.923 55.0524 120.606 55.8211C122.29 56.61 123.75 57.5203 124.987 58.552C126.225 59.6039 127.219 60.767 127.969 62.0414C128.719 63.336 129.135 64.7217 129.216 66.1984C129.277 67.1896 129.145 68.0999 128.821 68.9293C128.496 69.7789 128.02 70.4667 127.391 70.9926C126.762 71.5388 126.012 71.8624 125.14 71.9636C124.247 72.085 123.274 71.9029 122.219 71.4174C123.375 71.1747 124.196 70.6892 124.683 69.9609C125.17 69.2327 125.444 68.4033 125.505 67.4728C125.606 66.1175 125.424 64.8532 124.957 63.6799C124.491 62.5067 123.842 61.4447 123.01 60.4939C122.178 59.5432 121.164 58.7037 119.968 57.9754C118.771 57.2472 117.473 56.6201 116.073 56.0942C116.175 56.4381 116.246 56.8123 116.286 57.2169C116.307 57.6012 116.317 58.0159 116.317 58.4609C116.296 59.5128 116.063 60.5445 115.617 61.5559C115.171 62.5674 114.542 63.4372 113.731 64.1654C112.919 64.8937 111.956 65.4196 110.841 65.7433C109.725 66.0872 108.508 66.1276 107.19 65.8646C106.926 65.8444 106.601 65.7534 106.216 65.5916C105.81 65.4297 105.415 65.2072 105.03 64.924C104.644 64.6408 104.31 64.2666 104.026 63.8013C103.742 63.336 103.569 62.7798 103.508 62.1324C104.056 62.6382 104.705 63.0023 105.456 63.2248C106.226 63.4675 106.784 63.5788 107.129 63.5586C108.123 63.6193 109.025 63.508 109.837 63.2248C110.628 62.9618 111.327 62.5674 111.936 62.0414C112.544 61.5155 113.011 60.8884 113.335 60.1601C113.639 59.4319 113.792 58.643 113.792 57.7934C113.771 56.8426 113.629 55.993 113.366 55.2446C111.784 54.8198 110.171 54.5163 108.528 54.3343C106.906 54.1522 105.293 54.0713 103.691 54.0915C99.4722 54.1522 95.649 54.4152 92.2213 54.8805C88.7733 55.3457 85.5078 55.8919 82.4249 56.519C79.3419 57.1461 76.3503 57.8237 73.4499 58.552C70.5495 59.2802 67.5376 59.9579 64.4141 60.5849C61.3109 61.1918 57.9947 61.7076 54.4656 62.1324C50.9162 62.5572 46.9712 62.7899 42.6308 62.8303C39.5479 62.7899 36.5562 62.5572 33.6558 62.1324C30.7757 61.6874 28.0579 61.0401 25.5023 60.1905C22.9467 59.3611 20.594 58.3294 18.444 57.0955C16.2738 55.8818 14.3977 54.5062 12.8157 52.9688C12.2681 53.0498 11.7407 53.0902 11.2337 53.0902C9.40823 53.1914 7.76536 52.8879 6.30503 52.1799C4.86498 51.4921 3.65818 50.5313 2.68462 49.2973C1.73135 48.0432 1.02146 46.5665 0.554968 44.8673C0.0884732 43.168 -0.0839272 41.3677 0.0377672 39.4662C0.139179 37.5647 0.544827 35.5823 1.25471 33.519C1.94431 31.4961 2.96857 29.5036 4.32749 27.5414C5.82839 25.4174 7.65381 23.4754 9.80374 21.7155C11.974 19.9354 14.2253 18.4182 16.5578 17.164C18.8903 15.9099 21.2024 14.9389 23.4944 14.2511C25.766 13.5633 27.7638 13.2296 29.4878 13.2498ZM42.57 39.8606C43.7869 37.9389 45.0241 35.825 46.2816 33.519C47.5594 31.1927 48.8575 28.7956 50.1759 26.3277C51.5145 23.8597 52.8937 21.3918 54.3135 18.9239C55.7332 16.4763 57.1936 14.1601 58.6945 11.9754C60.1954 9.79069 61.7368 7.80828 63.3188 6.02815C64.8806 4.26826 66.5032 2.85225 68.1866 1.78013C65.9758 2.50836 63.836 3.60071 61.7672 5.05717C59.6984 6.53387 57.6803 8.24319 55.7129 10.1851C53.7456 12.1473 51.8289 14.2916 49.9629 16.6179C48.0766 18.9442 46.2208 21.3413 44.3954 23.8092C44.6388 26.3984 44.6286 29.0585 44.3649 31.7894C44.081 34.5405 43.4827 37.2309 42.57 39.8606ZM104.086 52.7564C106.946 52.6958 109.664 52.9082 112.24 53.3936C111.632 52.7463 110.901 52.2305 110.049 51.8461C109.177 51.4416 108.224 51.1483 107.19 50.9662C106.196 50.7639 105.111 50.6425 103.934 50.6021C102.778 50.5616 101.602 50.5414 100.405 50.5414C99.1477 50.5414 97.6062 50.6931 95.7808 50.9965C93.8946 51.3 91.917 51.6944 89.8482 52.1799C87.8605 52.6452 85.6498 53.2015 83.2159 53.8488C80.7211 54.5163 78.4394 55.1637 76.3706 55.7907C73.9367 56.519 71.7766 57.1663 69.8903 57.7327C67.497 58.4609 65.631 59.0172 64.2924 59.4016C67.5376 58.7138 70.5698 58.0058 73.3891 57.2776C76.2489 56.5493 79.3115 55.8615 82.577 55.2142C85.7816 54.5669 89.0978 54.0106 92.5255 53.5454C96.0141 53.0801 99.8677 52.8171 104.086 52.7564ZM42.5395 23.1113C40.0651 25.9838 37.6312 28.8866 35.2379 31.8197C32.8648 34.7327 30.3904 37.6051 27.8145 40.4372C27.206 41.1249 26.5266 41.8532 25.7761 42.6219C25.0257 43.431 24.2448 44.2402 23.4335 45.0493C22.6019 45.8787 21.7501 46.6878 20.8779 47.4768C20.0058 48.2657 19.1235 48.9939 18.2311 49.6615C19.6306 48.9737 20.9793 48.1241 22.2774 47.1126C23.5958 46.1214 24.833 45.0594 25.9891 43.9266C27.1655 42.814 28.2709 41.6913 29.3053 40.5585C30.3397 39.4055 31.2727 38.3233 32.1042 37.3118C34.0108 35.0664 35.8058 32.7806 37.4892 30.4543C39.1929 28.128 40.9372 25.7916 42.7221 23.4451L44.2737 21.3514L45.2472 20.077L44.73 20.6535L44.2433 21.23L42.5395 23.1113ZM35.968 49.4491C36.4954 49.53 37.0531 49.4794 37.6413 49.2973C38.2295 49.1153 38.7264 48.8928 39.1321 48.6298C39.9434 48.1038 40.6837 47.4666 41.353 46.7182C42.0426 45.9697 42.6714 45.1707 43.2393 44.3211C43.8072 43.4715 44.3345 42.6016 44.8213 41.7116C45.3081 40.8417 45.7847 39.982 46.2512 39.1324C47.7927 36.1993 49.2733 33.2459 50.6931 30.2722C52.1128 27.3189 53.5833 24.3655 55.1045 21.4121C53.5833 24.1025 52.1027 26.803 50.6626 29.5137C49.2429 32.2243 47.7521 34.9046 46.1904 37.5546C45.5413 38.6672 44.8821 39.7797 44.2128 40.8923C43.5232 42.0251 42.7931 43.1175 42.0223 44.1694C41.2516 45.2213 40.3997 46.1821 39.4667 47.052C38.5135 47.942 37.4487 48.6905 36.2723 49.2973L35.968 49.4491ZM2.25869 35.2485C1.99502 36.1588 1.79219 37.1197 1.65022 38.1311C1.50824 39.1223 1.46768 40.1236 1.52852 41.1351L1.71107 39.891C2.50208 36.2903 3.93199 32.8312 6.00079 29.5137C8.0696 26.2164 10.544 23.3136 13.4241 20.8052C10.8686 22.5853 8.59694 24.6689 6.60926 27.0559C4.62159 29.4429 3.1714 32.1737 2.25869 35.2485Z" fill="#27261B"/>
</svg>
